<svg xmlns="http://www.w3.org/2000/svg" xmlns:xlink="http://www.w3.org/1999/xlink" width="700" height="500">
<defs>
<style type="text/css"><![CDATA[
  .borderLine {
	   stroke: none;
	   fill-opacity:  0.4 ;
  }
  .outLine {
	   stroke-width:  1 ;
	   fill: none;
  }
  .circle {
	   stroke: #888888;
	   stroke-width: 0.5;
	   fill: none;
    pointer-events: all;
  }
  .nLabel {
	   font-family: Arial;
    pointer-events: none;
	   font-size: 10px;
	   text-anchor: middle;
	   alignment-baseline: central;
  }
  .belong {
	   font-family: Arial;
    pointer-events: none;
	   font-size: 5px;
	   text-anchor: middle;
	   alignment-baseline: central;
  }
  .legend {
    font-family: Arial;
    font-size: 15px;
  }
  #legendBox {
    display:  inline ;
  }
  .p0{
    stroke: none;
    fill: #e6194b;
  }
  .q0{
    fill: none;
    stroke: #e6194b;
  }
  .p1{
    stroke: none;
    fill: #3cb44b;
  }
  .q1{
    fill: none;
    stroke: #3cb44b;
  }
  .p2{
    stroke: none;
    fill: #ffe119;
  }
  .q2{
    fill: none;
    stroke: #ffe119;
  }
  .p3{
    stroke: none;
    fill: #0082c8;
  }
  .q3{
    fill: none;
    stroke: #0082c8;
  }
]]>
</style>
<symbol id="bl0">
<path d="M 209.04 364.33 L 205.89 364.31 L 202.74 364.33 L 199.59 364.42 L 196.45 364.59 L 193.31 364.85 L 190.19 365.21 L 187.10 365.67 L 184.03 366.21 L 180.97 366.81 L 177.90 367.46 L 174.83 368.14 L 171.73 368.84 L 168.59 369.57 L 165.40 370.32 L 162.14 371.10 L 158.77 371.90 L 155.28 372.72 L 151.63 373.52 L 147.83 374.27 L 143.90 374.89 L 139.93 375.27 L 136.01 375.33 L 132.23 374.99 L 128.69 374.22 L 125.46 373.04 L 122.55 371.48 L 119.93 369.60 L 117.56 367.45 L 115.38 365.10 L 113.31 362.61 L 111.33 360.02 L 109.38 357.36 L 107.46 354.67 L 105.53 351.95 L 103.61 349.21 L 101.66 346.43 L 99.67 343.61 L 97.63 340.70 L 95.52 337.71 L 93.35 334.63 L 91.16 331.49 L 89.00 328.33 L 86.95 325.19 L 85.08 322.07 L 83.43 318.98 L 82.06 315.91 L 80.98 312.83 L 80.20 309.73 L 79.71 306.61 L 79.48 303.49 L 79.49 300.37 L 79.67 297.26 L 80.00 294.14 L 80.42 291.00 L 80.91 287.80 L 81.45 284.51 L 82.03 281.09 L 82.62 277.51 L 83.22 273.80 L 83.82 270.00 L 84.41 266.18 L 84.96 262.43 L 85.49 258.80 L 86.00 255.27 L 86.48 251.83 L 86.96 248.42 L 87.44 244.99 L 87.91 241.52 L 88.39 238.01 L 88.85 234.51 L 89.31 231.06 L 89.75 227.68 L 90.19 224.36 L 90.63 221.10 L 91.08 217.88 L 91.56 214.67 L 92.09 211.49 L 92.69 208.32 L 93.39 205.18 L 94.21 202.08 L 95.16 199.03 L 96.27 196.05 L 97.53 193.15 L 98.95 190.32 L 100.52 187.57 L 102.25 184.91 L 104.13 182.35 L 106.14 179.90 L 108.28 177.57 L 110.53 175.36 L 112.89 173.27 L 115.35 171.33 L 117.92 169.52 L 120.58 167.87 L 123.34 166.38 L 126.20 165.05 L 129.14 163.88 L 132.16 162.89 L 135.22 162.07 L 138.32 161.42 L 141.44 160.94 L 144.56 160.64 L 147.68 160.51 L 150.79 160.55 L 153.90 160.77 L 156.98 161.17 L 160.04 161.74 L 163.07 162.48 L 166.04 163.38 L 168.97 164.44 L 171.82 165.67 L 174.61 167.05 L 177.32 168.60 L 179.94 170.31 L 182.49 172.19 L 184.94 174.23 L 187.31 176.44 L 189.58 178.82 L 191.75 181.35 L 193.80 184.01 L 195.71 186.79 L 197.48 189.67 L 199.11 192.63 L 200.59 195.66 L 201.96 198.74 L 203.22 201.85 L 204.40 204.99 L 205.53 208.14 L 206.62 211.30 L 207.69 214.45 L 208.77 217.61 L 209.88 220.76 L 211.04 223.89 L 212.28 226.98 L 213.59 230.02 L 214.95 233.02 L 216.28 235.98 L 217.48 238.94 L 218.46 241.91 L 219.16 244.91 L 219.58 247.95 L 219.79 251.02 L 219.87 254.12 L 219.94 257.23 L 220.09 260.35 L 220.41 263.48 L 220.96 266.60 L 221.79 269.70 L 222.94 272.75 L 224.43 275.72 L 226.26 278.58 L 228.42 281.29 L 230.90 283.81 L 233.64 286.13 L 236.58 288.23 L 239.65 290.11 L 242.80 291.81 L 245.99 293.35 L 249.22 294.80 L 252.51 296.20 L 255.86 297.57 L 259.28 298.95 L 262.74 300.34 L 266.21 301.75 L 269.64 303.23 L 273.02 304.80 L 276.31 306.51 L 279.49 308.41 L 282.57 310.55 L 285.53 312.94 L 288.37 315.55 L 291.12 318.34 L 293.78 321.25 L 296.36 324.19 L 298.88 327.12 L 301.34 330.00 L 303.73 332.79 L 306.05 335.52 L 308.30 338.18 L 310.49 340.81 L 312.61 343.44 L 314.64 346.10 L 316.57 348.82 L 318.39 351.63 L 320.06 354.53 L 321.52 357.48 L 322.71 360.44 L 323.53 363.34 L 323.92 366.08 L 323.96 368.62 L 323.02 370.71 L 321.34 372.10 L 319.27 373.06 L 316.77 373.49 L 313.92 373.41 L 310.84 372.92 L 307.60 372.12 L 304.27 371.11 L 300.92 369.96 L 297.58 368.73 L 294.27 367.47 L 291.00 366.26 L 287.72 365.18 L 284.42 364.31 L 281.06 363.71 L 277.65 363.38 L 274.21 363.30 L 270.74 363.40 L 267.28 363.58 L 263.83 363.79 L 260.40 363.97 L 257.00 364.12 L 253.61 364.23 L 250.21 364.32 L 246.77 364.39 L 243.27 364.46 L 239.70 364.52 L 236.08 364.57 L 232.44 364.60 L 228.84 364.62 L 225.32 364.61 L 221.91 364.57 L 218.60 364.51 L 215.37 364.45 L 212.19 364.38 Z" />
</symbol>
<symbol id="bl1">
<path d="M 337.83 346.57 L 333.11 346.11 L 328.40 345.62 L 323.71 345.19 L 319.07 344.91 L 314.50 344.90 L 310.03 345.23 L 305.66 345.97 L 301.40 347.14 L 297.24 348.73 L 293.15 350.66 L 289.08 352.82 L 284.98 355.06 L 280.79 357.21 L 276.48 359.11 L 272.06 360.66 L 267.55 361.81 L 262.99 362.58 L 258.40 363.05 L 253.80 363.30 L 249.21 363.42 L 244.61 363.47 L 240.01 363.51 L 235.42 363.55 L 230.82 363.60 L 226.23 363.67 L 221.62 363.73 L 216.98 363.79 L 212.30 363.83 L 207.56 363.84 L 202.77 363.81 L 197.92 363.71 L 193.05 363.51 L 188.19 363.12 L 183.37 362.49 L 178.64 361.53 L 174.04 360.19 L 169.60 358.43 L 165.35 356.24 L 161.33 353.62 L 157.57 350.61 L 154.10 347.25 L 150.95 343.59 L 148.15 339.69 L 145.71 335.61 L 143.64 331.40 L 141.93 327.08 L 140.52 322.69 L 139.34 318.25 L 138.30 313.79 L 137.29 309.34 L 136.20 304.93 L 134.94 300.58 L 133.44 296.32 L 131.67 292.15 L 129.63 288.10 L 127.36 284.14 L 124.90 280.28 L 122.32 276.49 L 119.65 272.75 L 116.94 269.05 L 114.21 265.36 L 111.51 261.66 L 108.84 257.94 L 106.26 254.16 L 103.80 250.30 L 101.51 246.34 L 99.43 242.26 L 97.61 238.06 L 96.09 233.74 L 94.90 229.31 L 94.07 224.79 L 93.60 220.21 L 93.51 215.59 L 93.80 210.97 L 94.45 206.38 L 95.47 201.84 L 96.81 197.38 L 98.46 193.02 L 100.36 188.75 L 102.49 184.58 L 104.77 180.50 L 107.18 176.48 L 109.68 172.53 L 112.24 168.61 L 114.83 164.73 L 117.45 160.87 L 120.08 157.02 L 122.72 153.18 L 125.34 149.34 L 127.95 145.50 L 130.55 141.66 L 133.12 137.81 L 135.68 133.96 L 138.23 130.11 L 140.78 126.26 L 143.33 122.42 L 145.90 118.60 L 148.48 114.78 L 151.07 110.96 L 153.67 107.15 L 156.26 103.33 L 158.84 99.51 L 161.42 95.67 L 163.98 91.83 L 166.52 87.97 L 169.06 84.11 L 171.59 80.25 L 174.12 76.38 L 176.64 72.52 L 179.18 68.67 L 181.74 64.86 L 184.34 61.07 L 187.01 57.35 L 189.76 53.69 L 192.61 50.11 L 195.57 46.63 L 198.65 43.26 L 201.87 39.99 L 205.21 36.86 L 208.69 33.87 L 212.30 31.03 L 216.04 28.35 L 219.90 25.84 L 223.87 23.49 L 227.94 21.33 L 232.12 19.34 L 236.38 17.54 L 240.72 15.92 L 245.13 14.50 L 249.60 13.27 L 254.12 12.24 L 258.69 11.39 L 263.30 10.74 L 267.94 10.29 L 272.59 10.05 L 277.25 10.00 L 281.90 10.16 L 286.53 10.53 L 291.13 11.11 L 295.68 11.88 L 300.19 12.86 L 304.64 14.04 L 309.03 15.40 L 313.35 16.96 L 317.61 18.69 L 321.80 20.61 L 325.90 22.70 L 329.91 24.97 L 333.83 27.42 L 337.64 30.04 L 341.33 32.83 L 344.90 35.78 L 348.34 38.89 L 351.64 42.15 L 354.80 45.55 L 357.81 49.09 L 360.66 52.76 L 363.35 56.55 L 365.88 60.46 L 368.22 64.47 L 370.39 68.58 L 372.38 72.77 L 374.19 77.04 L 375.84 81.37 L 377.35 85.74 L 378.73 90.15 L 380.01 94.59 L 381.22 99.04 L 382.37 103.51 L 383.48 107.99 L 384.57 112.47 L 385.64 116.96 L 386.70 121.46 L 387.75 125.97 L 388.80 130.47 L 389.85 134.99 L 390.89 139.50 L 391.93 144.02 L 392.97 148.55 L 394.01 153.09 L 395.06 157.63 L 396.12 162.19 L 397.19 166.76 L 398.28 171.35 L 399.36 175.95 L 400.45 180.57 L 401.54 185.20 L 402.64 189.83 L 403.73 194.46 L 404.84 199.09 L 405.96 203.71 L 407.10 208.32 L 408.26 212.93 L 409.42 217.54 L 410.58 222.15 L 411.73 226.77 L 412.87 231.39 L 413.98 236.01 L 415.07 240.63 L 416.13 245.24 L 417.14 249.84 L 418.07 254.43 L 418.90 259.02 L 419.57 263.62 L 420.06 268.23 L 420.32 272.85 L 420.33 277.48 L 420.07 282.10 L 419.51 286.70 L 418.66 291.26 L 417.49 295.77 L 416.03 300.20 L 414.27 304.54 L 412.22 308.75 L 409.91 312.82 L 407.33 316.73 L 404.51 320.47 L 401.46 324.01 L 398.19 327.33 L 394.72 330.43 L 391.05 333.29 L 387.22 335.91 L 383.22 338.26 L 379.08 340.35 L 374.80 342.17 L 370.41 343.71 L 365.92 344.96 L 361.34 345.92 L 356.70 346.59 L 352.01 346.96 L 347.30 347.05 L 342.57 346.90 Z" />
</symbol>
<symbol id="bl2">
<path d="M 266.16 407.96 L 264.03 406.59 L 262.02 405.01 L 260.16 403.24 L 258.47 401.30 L 256.95 399.23 L 255.59 397.03 L 254.36 394.72 L 253.25 392.30 L 252.24 389.79 L 251.33 387.22 L 250.49 384.59 L 249.70 381.96 L 248.92 379.34 L 248.13 376.76 L 247.32 374.24 L 246.50 371.81 L 245.67 369.45 L 244.87 367.18 L 244.11 364.97 L 243.37 362.79 L 242.64 360.60 L 241.93 358.40 L 241.21 356.16 L 240.50 353.90 L 239.81 351.63 L 239.16 349.36 L 238.56 347.11 L 238.02 344.87 L 237.54 342.63 L 237.15 340.38 L 236.87 338.10 L 236.72 335.80 L 236.69 333.48 L 236.81 331.15 L 237.03 328.81 L 237.33 326.46 L 237.66 324.10 L 237.99 321.73 L 238.26 319.35 L 238.45 316.98 L 238.55 314.61 L 238.54 312.27 L 238.42 309.94 L 238.21 307.64 L 237.90 305.36 L 237.49 303.12 L 236.99 300.94 L 236.38 298.83 L 235.66 296.77 L 234.82 294.77 L 233.85 292.79 L 232.77 290.84 L 231.57 288.88 L 230.27 286.93 L 228.88 284.98 L 227.42 283.04 L 225.89 281.13 L 224.32 279.25 L 222.72 277.39 L 221.10 275.55 L 219.48 273.72 L 217.88 271.90 L 216.30 270.10 L 214.75 268.34 L 213.24 266.60 L 211.76 264.89 L 210.30 263.19 L 208.86 261.50 L 207.43 259.77 L 206.00 258.01 L 204.61 256.18 L 203.29 254.27 L 202.10 252.27 L 201.11 250.20 L 200.40 248.06 L 200.03 245.89 L 200.01 243.71 L 200.33 241.54 L 200.96 239.40 L 201.83 237.32 L 202.88 235.31 L 204.06 233.36 L 205.33 231.47 L 206.65 229.63 L 208.00 227.83 L 209.38 226.05 L 210.77 224.29 L 212.19 222.55 L 213.63 220.86 L 215.12 219.23 L 216.69 217.71 L 218.35 216.32 L 220.11 215.11 L 222.00 214.12 L 224.01 213.38 L 226.12 212.93 L 228.30 212.78 L 230.52 212.93 L 232.74 213.38 L 234.91 214.08 L 237.01 214.99 L 239.02 216.07 L 240.95 217.26 L 242.84 218.55 L 244.70 219.90 L 246.57 221.31 L 248.45 222.75 L 250.36 224.22 L 252.25 225.69 L 254.11 227.14 L 255.93 228.57 L 257.70 229.96 L 259.44 231.33 L 261.15 232.67 L 262.83 234.01 L 264.49 235.35 L 266.13 236.70 L 267.72 238.10 L 269.27 239.57 L 270.76 241.11 L 272.18 242.76 L 273.52 244.52 L 274.76 246.38 L 275.87 248.34 L 276.84 250.38 L 277.65 252.49 L 278.27 254.63 L 278.70 256.80 L 278.96 258.98 L 279.06 261.16 L 279.02 263.34 L 278.90 265.51 L 278.72 267.68 L 278.51 269.84 L 278.31 272.00 L 278.15 274.15 L 278.05 276.32 L 278.01 278.51 L 278.05 280.72 L 278.18 282.96 L 278.39 285.23 L 278.69 287.53 L 279.10 289.88 L 279.62 292.29 L 280.27 294.74 L 281.03 297.21 L 281.89 299.65 L 282.82 302.05 L 283.81 304.36 L 284.85 306.59 L 285.93 308.74 L 287.06 310.82 L 288.25 312.85 L 289.50 314.86 L 290.82 316.86 L 292.23 318.87 L 293.74 320.91 L 295.34 323.00 L 297.02 325.14 L 298.77 327.31 L 300.57 329.50 L 302.41 331.67 L 304.29 333.83 L 306.20 335.97 L 308.13 338.11 L 310.07 340.25 L 311.98 342.42 L 313.85 344.64 L 315.64 346.88 L 317.34 349.15 L 318.93 351.41 L 320.43 353.62 L 321.84 355.75 L 323.18 357.79 L 324.43 359.73 L 325.58 361.61 L 326.59 363.47 L 327.41 365.34 L 328.02 367.26 L 328.41 369.24 L 328.60 371.29 L 328.63 373.43 L 328.55 375.64 L 328.42 377.95 L 328.27 380.32 L 328.11 382.75 L 327.91 385.20 L 327.63 387.61 L 327.21 389.94 L 326.58 392.15 L 325.70 394.19 L 324.57 396.04 L 323.18 397.69 L 321.57 399.13 L 319.78 400.36 L 317.88 401.40 L 315.89 402.30 L 313.85 403.10 L 311.76 403.84 L 309.63 404.57 L 307.44 405.30 L 305.20 406.04 L 302.92 406.76 L 300.63 407.46 L 298.36 408.12 L 296.12 408.74 L 293.91 409.32 L 291.71 409.86 L 289.48 410.36 L 287.20 410.79 L 284.87 411.15 L 282.48 411.39 L 280.06 411.49 L 277.65 411.41 L 275.27 411.15 L 272.93 410.68 L 270.62 410.00 L 268.36 409.10 Z" />
</symbol>
<symbol id="bl3">
<path d="M 271.89 438.57 L 269.33 442.04 L 266.72 445.58 L 264.01 449.16 L 261.21 452.77 L 258.29 456.37 L 255.26 459.95 L 252.12 463.45 L 248.87 466.86 L 245.52 470.14 L 242.05 473.23 L 238.47 476.12 L 234.74 478.78 L 230.88 481.18 L 226.89 483.33 L 222.77 485.20 L 218.55 486.77 L 214.24 488.04 L 209.88 489.00 L 205.48 489.65 L 201.08 489.98 L 196.72 490.00 L 192.42 489.71 L 188.20 489.13 L 184.07 488.26 L 180.03 487.11 L 176.08 485.68 L 172.24 483.98 L 168.52 482.03 L 164.93 479.83 L 161.50 477.40 L 158.23 474.75 L 155.15 471.89 L 152.26 468.83 L 149.58 465.56 L 147.12 462.10 L 144.88 458.46 L 142.85 454.65 L 141.02 450.69 L 139.39 446.61 L 137.91 442.45 L 136.54 438.25 L 135.25 434.02 L 133.99 429.80 L 132.74 425.59 L 131.49 421.39 L 130.24 417.20 L 129.01 413.01 L 127.78 408.78 L 126.56 404.49 L 125.31 400.13 L 124.04 395.69 L 122.74 391.19 L 121.41 386.64 L 120.10 382.08 L 118.83 377.52 L 117.66 372.98 L 116.68 368.45 L 115.97 363.95 L 115.64 359.47 L 115.76 355.05 L 116.37 350.71 L 117.47 346.48 L 119.00 342.38 L 120.88 338.39 L 122.99 334.48 L 125.23 330.61 L 127.51 326.75 L 129.76 322.85 L 131.92 318.90 L 133.97 314.89 L 135.91 310.85 L 137.78 306.77 L 139.65 302.69 L 141.58 298.64 L 143.65 294.67 L 145.90 290.81 L 148.39 287.11 L 151.12 283.61 L 154.09 280.35 L 157.28 277.39 L 160.64 274.74 L 164.12 272.42 L 167.69 270.41 L 171.34 268.67 L 175.07 267.15 L 178.89 265.78 L 182.80 264.53 L 186.78 263.33 L 190.81 262.17 L 194.85 261.00 L 198.87 259.79 L 202.82 258.47 L 206.67 256.99 L 210.41 255.28 L 214.01 253.30 L 217.46 251.07 L 220.81 248.65 L 224.08 246.15 L 227.33 243.66 L 230.60 241.28 L 233.95 239.07 L 237.40 237.04 L 240.98 235.20 L 244.71 233.53 L 248.59 232.03 L 252.60 230.66 L 256.70 229.42 L 260.86 228.27 L 265.05 227.19 L 269.24 226.17 L 273.44 225.17 L 277.65 224.19 L 281.87 223.21 L 286.08 222.21 L 290.28 221.17 L 294.46 220.08 L 298.58 218.94 L 302.63 217.73 L 306.59 216.46 L 310.46 215.13 L 314.23 213.77 L 317.93 212.39 L 321.60 211.04 L 325.28 209.77 L 329.01 208.60 L 332.79 207.59 L 336.61 206.75 L 340.45 206.12 L 344.29 205.70 L 348.10 205.49 L 351.86 205.50 L 355.57 205.70 L 359.25 206.10 L 362.89 206.70 L 366.49 207.49 L 370.06 208.47 L 373.59 209.65 L 377.07 211.01 L 380.49 212.56 L 383.84 214.31 L 387.11 216.24 L 390.29 218.35 L 393.36 220.62 L 396.31 223.05 L 399.11 225.63 L 401.76 228.35 L 404.26 231.19 L 406.59 234.14 L 408.74 237.19 L 410.71 240.32 L 412.50 243.54 L 414.11 246.83 L 415.55 250.19 L 416.80 253.61 L 417.88 257.08 L 418.78 260.60 L 419.50 264.16 L 420.03 267.75 L 420.38 271.36 L 420.52 275.00 L 420.46 278.67 L 420.19 282.39 L 419.71 286.17 L 419.01 290.02 L 418.09 293.91 L 416.95 297.80 L 415.60 301.66 L 414.05 305.41 L 412.33 309.01 L 410.45 312.45 L 408.43 315.72 L 406.26 318.82 L 403.95 321.76 L 401.48 324.54 L 398.86 327.19 L 396.06 329.71 L 393.06 332.12 L 389.85 334.42 L 386.43 336.64 L 382.82 338.75 L 379.04 340.77 L 375.13 342.69 L 371.12 344.53 L 367.06 346.27 L 362.97 347.94 L 358.87 349.52 L 354.78 351.00 L 350.73 352.37 L 346.73 353.62 L 342.81 354.74 L 338.97 355.77 L 335.24 356.78 L 331.62 357.90 L 328.12 359.24 L 324.74 360.90 L 321.48 362.94 L 318.30 365.32 L 315.55 368.43 L 312.91 371.78 L 310.44 375.34 L 308.17 379.08 L 306.10 382.95 L 304.20 386.93 L 302.36 390.96 L 300.49 395.00 L 298.50 399.02 L 296.34 402.99 L 294.03 406.89 L 291.61 410.71 L 289.14 414.44 L 286.65 418.08 L 284.19 421.63 L 281.74 425.08 L 279.31 428.46 L 276.87 431.81 L 274.40 435.17 Z" />
</symbol>
</defs>
<!-- isDone: 0 -->
<rect width="700" height="500" style="fill:#fff;stroke-width:0" />
<use class="p0 borderLine" xlink:href="#bl0"/>
<use class="p1 borderLine" xlink:href="#bl1"/>
<use class="p2 borderLine" xlink:href="#bl2"/>
<use class="p3 borderLine" xlink:href="#bl3"/>
<use class="q0 outLine" xlink:href="#bl0"/>
<use class="q1 outLine" xlink:href="#bl1"/>
<use class="q2 outLine" xlink:href="#bl2"/>
<use class="q3 outLine" xlink:href="#bl3"/>
<circle onclick="fromCircle(8)" class="circle" cx="107.0001" cy="304.6771" r="24.6095" />
<text class="nLabel" x="107.00" y="299.68">500</text>
<text class="belong" x="107.00" y="309.68">(1)</text>
<circle onclick="fromCircle(12)" class="circle" cx="147.9906" cy="216.0961" r="52.1465" />
<text class="nLabel" x="147.99" y="211.10">2245</text>
<text class="belong" x="147.99" y="221.10">(1, 2)</text>
<circle onclick="fromCircle(14)" class="circle" cx="209.7525" cy="244.6483" r="7.0471" />
<text class="nLabel" x="209.75" y="239.65">41</text>
<text class="belong" x="209.75" y="249.65">(1, 2, 3)</text>
<circle onclick="fromCircle(15)" class="circle" cx="266.0237" cy="334.0882" r="25.3370" />
<text class="nLabel" x="266.02" y="329.09">530</text>
<text class="belong" x="266.02" y="339.09">(1, 2, 3, 4)</text>
<circle onclick="fromCircle(4)" class="circle" cx="275.9978" cy="114.1003" r="102.2463" />
<text class="nLabel" x="276.00" y="109.10">8631</text>
<text class="belong" x="276.00" y="119.10">(2)</text>
<circle onclick="fromCircle(6)" class="circle" cx="228.4430" cy="226.5967" r="10.8951" />
<text class="nLabel" x="228.44" y="221.60">98</text>
<text class="belong" x="228.44" y="231.60">(2, 3)</text>
<circle onclick="fromCircle(7)" class="circle" cx="249.6592" cy="262.1120" r="25.6222" />
<text class="nLabel" x="249.66" y="257.11">542</text>
<text class="belong" x="249.66" y="267.11">(2, 3, 4)</text>
<circle onclick="fromCircle(5)" class="circle" cx="350.2133" cy="276.0635" r="67.3868" />
<text class="nLabel" x="350.21" y="271.06">3749</text>
<text class="belong" x="350.21" y="281.06">(2, 4)</text>
<circle onclick="fromCircle(2)" class="circle" cx="315.9659" cy="389.3728" r="7.9363" />
<text class="nLabel" x="315.97" y="384.37">52</text>
<text class="belong" x="315.97" y="394.37">(3)</text>
<circle onclick="fromCircle(10)" class="circle" cx="320.4954" cy="368.0084" r="3.4104" />
<text class="nLabel" x="320.50" y="363.01">5</text>
<text class="belong" x="320.50" y="373.01">(1, 3)</text>
<circle onclick="fromCircle(11)" class="circle" cx="305.5368" cy="357.4515" r="10.2654" />
<text class="nLabel" x="305.54" y="352.45">87</text>
<text class="belong" x="305.54" y="362.45">(1, 3, 4)</text>
<circle onclick="fromCircle(3)" class="circle" cx="278.1859" cy="387.1745" r="20.4718" />
<text class="nLabel" x="278.19" y="382.17">346</text>
<text class="belong" x="278.19" y="392.17">(3, 4)</text>
<circle onclick="fromCircle(1)" class="circle" cx="198.9603" cy="428.1446" r="58.9703" />
<text class="nLabel" x="198.96" y="423.14">2871</text>
<text class="belong" x="198.96" y="433.14">(4)</text>
<circle onclick="fromCircle(9)" class="circle" cx="134.3356" cy="356.0609" r="17.1208" />
<text class="nLabel" x="134.34" y="351.06">242</text>
<text class="belong" x="134.34" y="361.06">(1, 4)</text>
<circle onclick="fromCircle(13)" class="circle" cx="188.6335" cy="314.5183" r="45.5773" />
<text class="nLabel" x="188.63" y="309.52">1715</text>
<text class="belong" x="188.63" y="319.52">(1, 2, 4)</text>
<g id="legendBox">
<rect class="p0 borderLine" x="500.00" y="50.00" width="30.00" height="15.00" />
<rect class="q0" x="500.00" y="50.00" width="30.00" height="15.00" />
<text class="legend" x="540.00" y="65.00">Fresh</text>
<rect class="p1 borderLine" x="500.00" y="90.00" width="30.00" height="15.00" />
<rect class="q1" x="500.00" y="90.00" width="30.00" height="15.00" />
<text class="legend" x="540.00" y="105.00">FFPEVNEE</text>
<rect class="p2 borderLine" x="500.00" y="130.00" width="30.00" height="15.00" />
<rect class="q2" x="500.00" y="130.00" width="30.00" height="15.00" />
<text class="legend" x="540.00" y="145.00">FFPEPW1</text>
<rect class="p3 borderLine" x="500.00" y="170.00" width="30.00" height="15.00" />
<rect class="q3" x="500.00" y="170.00" width="30.00" height="15.00" />
<text class="legend" x="540.00" y="185.00">FFPEPW2</text>
</g>
</svg>
